# xmcd
#
# Track frame offsets:
#	150
#	24755
#	33535
#	53784
#	79821
#	102571
#	127335
#	152075
#	174370
#
# Disc length: 2574
#
# Revision: 1
# Processed by: cddbd v1.5.1PL0 Copyright (c) Steve Scherf et al.
# Submitted via: CDex 1.51
# Normalized: r0:DSETVAR1,TDELIM( - )
#
DISCID=6f0a0c09
DTITLE=Various Artist - Music For Now - Winter 2005
DYEAR=2005
DGENRE=Jazz
TTITLE0=Joe Lovano with Hank Jones - Six and Four
TTITLE1=Wynton Marsalis - What Have You Done
TTITLE2=Wynton Marsalis - We'll Meet Again Someday
TTITLE3=Jason Moran - Jump Up
TTITLE4=Don Byron - I Cover the Waterfront
TTITLE5=Patricia Barber - Laura
TTITLE6=Gonzalo Rubalcaba - El Guerrillero
TTITLE7=Stefano di Battista - A Night in Tunisia
TTITLE8=Medeski Martin and Wood - Mami Gato
EXTD=YEAR: 2005
EXTT0=
EXTT1=
EXTT2=
EXTT3=
EXTT4=
EXTT5=
EXTT6=
EXTT7=
EXTT8=
PLAYORDER=
